<svg width="87" height="87" viewBox="0 0 87 87" fill="none" xmlns="http://www.w3.org/2000/svg">
<path d="M35.4286 55.3788H19.3993L20.0145 51.8585L29.6868 43.4508C31.8514 41.5596 33.0476 39.9647 33.2754 38.6659C33.4349 37.7317 33.2754 36.9798 32.7969 36.4102C32.3412 35.8406 31.6691 35.5558 30.7805 35.5558C29.0944 35.5558 27.6361 36.5241 26.4057 38.4609L22.6462 36.0343C23.6715 34.3937 24.9361 33.1406 26.4399 32.2747C27.9665 31.4089 29.6184 30.976 31.3957 30.976C33.4919 30.976 35.2122 31.7165 36.5565 33.1975C37.9236 34.6785 38.4021 36.5583 37.9919 38.8368C37.7413 40.1811 37.2286 41.4229 36.4539 42.5622C35.6793 43.6786 34.54 44.8749 33.0362 46.1508L27.5336 50.8332H36.2147L35.4286 55.3788ZM40.3699 33.676L47.0688 31.4545H51.1701L46.9662 55.3788H42.2497L45.5308 36.6153L40.8143 37.8798L40.3699 33.676ZM63.4294 41.3318H69.0687L68.3168 45.4673H62.7117L61.7205 51.1066H57.5851L58.5762 45.4673H52.9369L53.6888 41.3318H59.2939L60.2851 35.7267H64.4206L63.4294 41.3318Z" fill="black"/>
<circle cx="43.2029" cy="43.7058" r="38.8845" stroke="url(#paint0_angular_2_251)" stroke-width="8.24885"/>
<defs>
<radialGradient id="paint0_angular_2_251" cx="0" cy="0" r="1" gradientUnits="userSpaceOnUse" gradientTransform="translate(43.2029 43.7058) rotate(90) scale(43.0089)">
<stop stop-color="#FD0000"/>
<stop offset="1" stop-color="#C80303"/>
</radialGradient>
</defs>
</svg>
